<?xml version="1.0" standalone="no"?>
<!DOCTYPE svg PUBLIC "-//W3C//DTD SVG 20010904//EN"
 "http://www.w3.org/TR/2001/REC-SVG-20010904/DTD/svg10.dtd">
<svg version="1.0" xmlns="http://www.w3.org/2000/svg"
 width="170.000000pt" height="170.000000pt" viewBox="0 0 170.000000 170.000000"
 preserveAspectRatio="xMidYMid meet">
<metadata>
Created by potrace 1.14, written by Peter Selinger 2001-2017
</metadata>
<g transform="translate(0.000000,170.000000) scale(0.100000,-0.100000)"
fill="#000000" stroke="none">
<path d="M710 1520 c-135 -9 -159 -14 -255 -60 -92 -44 -190 -127 -231 -197
-36 -61 -38 -137 -5 -200 12 -24 25 -43 29 -43 4 0 46 16 92 36 47 20 95 40
108 45 l23 9 -21 40 c-25 49 -30 127 -11 163 23 44 85 66 211 77 62 6 115 8
118 6 2 -3 -9 -27 -26 -53 -64 -102 -91 -190 -176 -589 -78 -365 -80 -372
-109 -415 -19 -29 -29 -34 -67 -37 -40 -3 -50 1 -78 30 -19 17 -45 54 -58 80
-13 26 -27 48 -30 48 -4 0 -165 -89 -173 -96 -7 -6 31 -56 77 -100 60 -58 131
-84 226 -84 132 0 254 53 332 143 58 68 96 153 135 307 l37 145 143 2 c141 1
146 2 223 36 83 37 90 43 101 95 l7 32 -222 0 c-206 0 -221 1 -216 18 3 9 19
82 36 162 17 80 38 175 46 213 l16 67 101 0 c172 0 195 -15 206 -132 l6 -63
65 0 64 0 43 150 c23 83 42 156 43 163 0 9 -76 12 -352 10 -194 -1 -400 -4
-458 -8z"/>
</g>
</svg>
